<svg id="Capa_1" enable-background="new 0 0 512.008 512.008" height="512" viewBox="0 0 512.008 512.008" width="512" xmlns="http://www.w3.org/2000/svg"><g><g><g><g><g><path d="m87.314 259.424c-4.232 0-8.11-2.787-9.47-6.789-1.366-4.019.027-8.557 3.384-11.145 3.181-2.452 7.618-2.708 11.091-.715 3.553 2.039 5.542 6.234 4.855 10.277-.808 4.758-5.015 8.372-9.86 8.372z"/></g></g></g><g><g><g><path d="m255.772 476.613c-2.25 0-4.499-.757-6.344-2.27-7.518-6.169-184.547-151.717-219.914-205.629-3.259-4.969-6.122-9.678-8.756-14.396-2.691-4.822-.964-10.914 3.859-13.605 4.821-2.689 10.914-.963 13.605 3.859 2.399 4.299 5.021 8.608 8.015 13.174 30.093 45.872 177.067 168.962 209.537 195.896 31.71-26.282 172.695-144.235 207.503-192.302h-65.81l-23.268 34.217c-5.939 8.736-16.195 13.75-26.728 13.069-10.55-.678-20.067-6.956-24.843-16.384l-13.036-25.743-52.003 78.063c-5.573 8.369-14.905 13.367-24.962 13.369-1.412 0-2.838-.102-4.241-.301-11.376-1.625-20.947-9.756-24.387-20.717l-33.646-107.207-14.087 18.141c-5.727 7.371-14.362 11.599-23.694 11.599-5.522 0-10-4.478-10-10 0-5.523 4.478-10 10-10 3.11 0 5.989-1.409 7.898-3.867l25.805-33.229c2.282-2.938 6.004-4.366 9.67-3.708 3.662.659 6.655 3.297 7.77 6.848l39.367 125.436c1.146 3.653 4.337 6.364 8.128 6.905.469.066.946.101 1.417.101 3.35-.001 6.46-1.666 8.317-4.456l61.505-92.326c1.972-2.96 5.365-4.646 8.916-4.438 3.551.211 6.721 2.292 8.327 5.465l20.778 41.031c1.592 3.143 4.765 5.235 8.28 5.461 3.518.228 6.931-1.443 8.909-4.355l26.245-38.595c1.862-2.738 4.959-4.377 8.27-4.377h89.279c3.566 0 6.863 1.899 8.651 4.985 1.789 3.086 1.799 6.891.025 9.985-2.307 4.028-4.88 8.204-7.645 12.412-35.139 53.451-212.825 199.434-220.372 205.623-1.842 1.51-4.092 2.266-6.34 2.266z"/></g></g></g><g><g><path d="m239.177 292.019c-.469 0-.941-.033-1.415-.1-3.813-.544-6.975-3.229-8.128-6.905l-38.279-121.97c-1.118-3.562-4.096-6.186-7.77-6.847-3.672-.663-7.379.76-9.67 3.708l-43.236 55.675c-1.895 2.439-4.81 3.866-7.898 3.866h-109.161c-4.646 0-8.68-3.199-9.737-7.724-3.252-13.909-4.443-27.961-3.642-42.958 1.897-35.539 16.911-68.914 42.275-93.978 25.707-25.402 59.257-39.392 94.469-39.392 55.687 0 100.813 46.405 118.824 68.04 17.419-21.776 61.258-68.04 119.222-68.04 35.21 0 68.758 13.989 94.464 39.392 25.364 25.063 40.377 58.438 42.273 93.978.837 15.715-.517 30.431-4.14 44.99-1.108 4.457-5.111 7.586-9.704 7.586h-116.336c-3.314 0-6.405 1.637-8.269 4.377l-13.133 19.313c-1.99 2.926-5.37 4.581-8.911 4.356-3.532-.228-6.681-2.305-8.279-5.462l-20.946-41.363c-1.601-3.159-4.792-5.253-8.328-5.464-3.531-.215-6.955 1.495-8.916 4.439l-57.309 86.026c-1.87 2.808-5.008 4.457-8.32 4.457zm-57.404-155.986c1.775 0 3.565.157 5.354.48 11.025 1.984 19.955 9.855 23.31 20.541l32.015 102.009 45.71-68.615c5.884-8.832 16.124-13.925 26.737-13.316 10.619.633 20.191 6.914 24.993 16.394l13.288 26.241 3.601-5.295c5.592-8.223 14.865-13.131 24.808-13.131h108.277c1.883-10.169 2.516-20.547 1.932-31.512-3.367-63.098-55.749-114.434-116.766-114.434-63.576 0-110.235 69.363-110.699 70.063-1.825 2.757-4.896 4.434-8.202 4.479-.045.001-.091.001-.136.001-3.256 0-6.311-1.586-8.184-4.255-.491-.696-50.213-70.288-110.824-70.288-61.019 0-113.404 51.336-116.773 114.436-.55 10.297-.029 20.055 1.59 29.615h96.083l40.234-51.809c5.753-7.409 14.489-11.604 23.652-11.604z"/></g></g></g></g></svg>